<svg width="40" height="41" viewBox="0 0 40 41" fill="none" xmlns="http://www.w3.org/2000/svg">
<path opacity="0.21" fill-rule="evenodd" clip-rule="evenodd" d="M0 20.5V25.1667C0 33.635 6.86497 40.5 15.3333 40.5H20H24.6667C33.135 40.5 40 33.635 40 25.1667V20.5V15.8333C40 7.36497 33.135 0.5 24.6667 0.5H20H15.3333C6.86497 0.5 0 7.36497 0 15.8333V20.5Z" fill="#007BFF"/>
<path opacity="0.587821" fill-rule="evenodd" clip-rule="evenodd" d="M13.7777 16.0556C13.7777 18.0192 15.3696 19.6111 17.3333 19.6111C19.2969 19.6111 20.8888 18.0192 20.8888 16.0556C20.8888 14.0919 19.2969 12.5 17.3333 12.5C15.3696 12.5 13.7777 14.0919 13.7777 16.0556ZM22.6667 19.6111C22.6667 21.0839 23.8606 22.2778 25.3333 22.2778C26.8061 22.2778 28 21.0839 28 19.6111C28 18.1383 26.8061 16.9444 25.3333 16.9444C23.8606 16.9444 22.6667 18.1383 22.6667 19.6111Z" fill="#007BFF"/>
<path fill-rule="evenodd" clip-rule="evenodd" d="M17.3186 21.3889C13.1217 21.3889 9.67849 23.5458 9.33395 27.7882C9.31519 28.0193 9.75712 28.5 9.98004 28.5H24.6638C25.3315 28.5 25.3419 27.9626 25.3315 27.7889C25.071 23.4273 21.5745 21.3889 17.3186 21.3889ZM24.9788 23.1672C26.0945 24.6527 26.7556 26.4992 26.7556 28.5L30.183 28.5C30.6653 28.5 30.6728 28.097 30.6653 27.9667C30.4792 24.7312 28.0068 23.2003 24.9788 23.1672Z" fill="#007BFF"/>
</svg>
