<svg width="40" height="41" viewBox="0 0 40 41" fill="none" xmlns="http://www.w3.org/2000/svg">
<path opacity="0.21" fill-rule="evenodd" clip-rule="evenodd" d="M0 20.5V25.1667C0 33.635 6.86497 40.5 15.3333 40.5H20H24.6667C33.135 40.5 40 33.635 40 25.1667V20.5V15.8333C40 7.36497 33.135 0.5 24.6667 0.5H20H15.3333C6.86497 0.5 0 7.36497 0 15.8333V20.5Z" fill="#4ADD5F"/>
<path d="M29.4375 17.5113C29.2263 17.2719 28.9666 17.0803 28.6757 16.949C28.3847 16.8178 28.0692 16.7499 27.75 16.75H22.5V15.25C22.5 14.2554 22.1049 13.3016 21.4017 12.5983C20.6984 11.8951 19.7446 11.5 18.75 11.5C18.6107 11.4999 18.4741 11.5386 18.3555 11.6118C18.2369 11.685 18.1411 11.7898 18.0787 11.9144L14.5369 19H10.5C10.1022 19 9.72064 19.158 9.43934 19.4393C9.15804 19.7206 9 20.1022 9 20.5V28.75C9 29.1478 9.15804 29.5294 9.43934 29.8107C9.72064 30.092 10.1022 30.25 10.5 30.25H26.625C27.1732 30.2502 27.7025 30.0503 28.1137 29.6878C28.5249 29.3253 28.7896 28.8251 28.8581 28.2812L29.9831 19.2812C30.023 18.9644 29.995 18.6427 29.9009 18.3375C29.8068 18.0323 29.6488 17.7507 29.4375 17.5113ZM10.5 20.5H14.25V28.75H10.5V20.5Z" fill="#4ADD5F"/>
</svg>
