<svg width="40" height="41" viewBox="0 0 40 41" fill="none" xmlns="http://www.w3.org/2000/svg">
<path opacity="0.21" fill-rule="evenodd" clip-rule="evenodd" d="M0 20.5V25.1667C0 33.635 6.86497 40.5 15.3333 40.5H20H24.6667C33.135 40.5 40 33.635 40 25.1667V20.5V15.8333C40 7.36497 33.135 0.5 24.6667 0.5H20H15.3333C6.86497 0.5 0 7.36497 0 15.8333V20.5Z" fill="#9747FF"/>
<path d="M26.75 16.0912V12.75C26.75 12.3522 26.592 11.9706 26.3107 11.6893C26.0294 11.408 25.6478 11.25 25.25 11.25H14.75C14.3522 11.25 13.9706 11.408 13.6893 11.6893C13.408 11.9706 13.25 12.3522 13.25 12.75V16.125C13.2505 16.3578 13.3049 16.5873 13.409 16.7955C13.5132 17.0037 13.6641 17.1849 13.85 17.325L18.7503 21L13.85 24.675C13.6641 24.8151 13.5132 24.9963 13.409 25.2045C13.3049 25.4127 13.2505 25.6422 13.25 25.875V29.25C13.25 29.6478 13.408 30.0294 13.6893 30.3107C13.9706 30.592 14.3522 30.75 14.75 30.75H25.25C25.6478 30.75 26.0294 30.592 26.3107 30.3107C26.592 30.0294 26.75 29.6478 26.75 29.25V25.9088C26.7495 25.6769 26.6955 25.4482 26.5922 25.2406C26.489 25.033 26.3393 24.8519 26.1547 24.7116L21.2441 21L26.1547 17.2884C26.3393 17.1481 26.489 16.967 26.5922 16.7594C26.6955 16.5518 26.7495 16.3231 26.75 16.0912ZM25.25 12.75V15H14.75V12.75H25.25ZM25.25 29.25H14.75V25.875L20 21.9375L25.25 25.9078V29.25Z" fill="#6F42C1"/>
</svg>
