<svg width="40" height="41" viewBox="0 0 40 41" fill="none" xmlns="http://www.w3.org/2000/svg">
<path opacity="0.21" fill-rule="evenodd" clip-rule="evenodd" d="M0 20.5V25.1667C0 33.635 6.86497 40.5 15.3333 40.5H20H24.6667C33.135 40.5 40 33.635 40 25.1667V20.5V15.8333C40 7.36497 33.135 0.5 24.6667 0.5H20H15.3333C6.86497 0.5 0 7.36497 0 15.8333V20.5Z" fill="#FFC107"/>
<path d="M28 13.5V28.5C28 28.8978 27.842 29.2794 27.5607 29.5607C27.2794 29.842 26.8978 30 26.5 30H22.75C22.3522 30 21.9706 29.842 21.6893 29.5607C21.408 29.2794 21.25 28.8978 21.25 28.5V13.5C21.25 13.1022 21.408 12.7206 21.6893 12.4393C21.9706 12.158 22.3522 12 22.75 12H26.5C26.8978 12 27.2794 12.158 27.5607 12.4393C27.842 12.7206 28 13.1022 28 13.5ZM16.75 12H13C12.6022 12 12.2206 12.158 11.9393 12.4393C11.658 12.7206 11.5 13.1022 11.5 13.5V28.5C11.5 28.8978 11.658 29.2794 11.9393 29.5607C12.2206 29.842 12.6022 30 13 30H16.75C17.1478 30 17.5294 29.842 17.8107 29.5607C18.092 29.2794 18.25 28.8978 18.25 28.5V13.5C18.25 13.1022 18.092 12.7206 17.8107 12.4393C17.5294 12.158 17.1478 12 16.75 12Z" fill="#FFC107"/>
</svg>
