<svg width="40" height="41" viewBox="0 0 40 41" fill="none" xmlns="http://www.w3.org/2000/svg">
<path opacity="0.3" fill-rule="evenodd" clip-rule="evenodd" d="M0 20.5V25.1667C0 33.635 6.86497 40.5 15.3333 40.5H20H24.6667C33.135 40.5 40 33.635 40 25.1667V20.5V15.8333C40 7.36497 33.135 0.5 24.6667 0.5H20H15.3333C6.86497 0.5 0 7.36497 0 15.8333V20.5Z" fill="#007BFF"/>
<path opacity="0.78" fill-rule="evenodd" clip-rule="evenodd" d="M19.0874 16.3726C19.1008 16.1989 19.2456 16.0648 19.4198 16.0648H19.6983C19.8696 16.0648 20.0129 16.1946 20.03 16.365L20.4444 20.5092L23.3876 22.191C23.4914 22.2504 23.5555 22.3608 23.5555 22.4805V22.7395C23.5555 22.9593 23.3465 23.1189 23.1345 23.0611L18.9324 21.9151C18.7782 21.873 18.6755 21.7273 18.6878 21.5679L19.0874 16.3726Z" fill="#007BFF"/>
<path opacity="0.901274" fill-rule="evenodd" clip-rule="evenodd" d="M15.1478 10.4896C14.9718 10.2798 14.6318 10.3601 14.5683 10.6265L13.4793 15.1919C13.4275 15.409 13.5995 15.6147 13.8224 15.6021L18.5189 15.3359C18.7928 15.3204 18.9317 14.9991 18.7554 14.7889L17.5544 13.3576C18.331 13.0923 19.1545 12.9537 20 12.9537C24.1728 12.9537 27.5556 16.3364 27.5556 20.5092C27.5556 24.6821 24.1728 28.0648 20 28.0648C15.8272 28.0648 12.4444 24.6821 12.4444 20.5092C12.4444 19.8087 12.5393 19.1226 12.7243 18.4632L11.0126 17.9831C10.7872 18.7865 10.6667 19.6338 10.6667 20.5092C10.6667 25.6639 14.8453 29.8426 20 29.8426C25.1547 29.8426 29.3333 25.6639 29.3333 20.5092C29.3333 15.3546 25.1547 11.1759 20 11.1759C18.7034 11.1759 17.4686 11.4403 16.3465 11.9181L15.1478 10.4896Z" fill="#007BFF"/>
</svg>
